<svg id="Layer_1" data-name="Layer 1" xmlns="http://www.w3.org/2000/svg" viewBox="0 0 1304.78 769.96"><defs><style>.cls-1{fill:#fff;}</style></defs><path class="cls-1" d="M183,252.22c-22.8,0-41.1-7.45-55.45-22.8s-21.27-34.13-21.27-57.36c0-45.55,31.17-80.68,76.72-80.68,27.2,0,50,12.86,63.81,33.17l54.92-31.17C277.45,55.29,233.9,32,183,32c-79.68-1-143,61.37-141.53,140.05-1.48,78.68,61.85,141,141.53,140,51,0,94.5-23.76,118.73-61.33l-54.92-31.69C233.38,240.32,210.63,252.22,183,252.22Z"/><path class="cls-1" d="M599,32a142.08,142.08,0,0,0-79.36,22.6,136,136,0,0,0-62.13,117.45,136,136,0,0,0,2.2,27.64,131.34,131.34,0,0,0,7.45,26c20.51,51.52,71.51,87.13,131.84,86.37,81.64,0,141.53-60.37,141.53-140S680.65,32,599,32Zm55.44,197.41c-14.38,15.35-32.69,22.8-55.44,22.8s-41.07-7.45-55.41-22.8c-13.38-14.3-20.31-31.56-21.15-52.67-.08-1.53-.12-3.09-.12-4.69,0-25,9.34-46.75,25.28-61.37,13.14-12.14,30.8-19.31,51.4-19.31,46,0,77.19,35.13,77.19,80.68C676.2,195.29,668.79,214.08,654.45,229.42Z"/><path class="cls-1" d="M913.63,155.76l-39.1-8.9c-41.06-9.41-51.95-15.82-51.95-31.16,0-15.87,21.27-26.24,50.95-26.24,29.21,0,57.41,13.86,69.79,33.17L993.79,93.9c-9.89-16.3-25.76-29.68-47-41.06S901.25,36,875,36c-67.79,0-116.26,33.17-116.26,83.6,0,39.62,27.2,63.38,83.13,75.71L881,204.27c41.06,9.37,51.92,15.82,51.92,31.64s-25.2,26.24-58.85,26.24c-35.13,0-63.85-16.34-77.71-38.09l-51,29.2c10.38,17.31,26.72,31.65,49.48,44s48.51,18.79,77.71,18.79c71.23,0,124.19-33.13,124.19-83.6C996.76,192.37,969.56,168.13,913.63,155.76Z"/><path class="cls-1" d="M1180.27,155.76l-39.1-8.9c-41.06-9.41-52-15.82-52-31.16,0-15.87,21.31-26.24,51-26.24,29.2,0,57.4,13.86,69.74,33.17l50.48-28.73c-9.9-16.3-25.72-29.68-47-41.06S1167.89,36,1141.69,36c-67.78,0-116.29,33.17-116.29,83.6,0,39.62,27.2,63.38,83.12,75.71l39.1,8.94c41.06,9.37,52,15.82,52,31.64s-25.24,26.24-58.89,26.24c-35.13,0-63.82-16.34-77.68-38.09l-51,29.2c10.37,17.31,26.72,31.65,49.47,44s48.47,18.79,77.68,18.79c71.26,0,124.18-33.13,124.18-83.6C1263.39,192.37,1236.19,168.13,1180.27,155.76Z"/><path class="cls-1" d="M210.13,462.16l-38.43-8.74c-40.35-9.25-51-15.55-51-30.63,0-15.59,20.9-25.78,50.07-25.78,28.7,0,56.41,13.62,68.57,32.59l49.61-28.22c-9.73-16-25.28-29.17-46.18-40.35S198,344.49,172.18,344.49c-66.61,0-114.24,32.6-114.24,82.16,0,38.93,26.73,62.27,81.68,74.4L178,509.83c40.35,9.21,51.06,15.55,51.06,31.1s-24.8,25.78-57.87,25.78c-34.52,0-62.75-16.06-76.33-37.44L44.79,558c10.24,17,26.26,31.1,48.62,43.26s47.67,18.47,76.37,18.47c70,0,122-32.56,122-82.16C291.81,498.14,265.08,474.32,210.13,462.16Z"/><polygon class="cls-1" points="322.07 613.07 322.07 414.77 322.07 414.77 322.07 358.44 322.07 358.44 322.07 324.76 389.33 324.76 389.33 358.88 437.45 358.88 437.45 422 389.33 422 389.33 613.07 322.07 613.07"/><path class="cls-1" d="M573.35,351.81c-76.17-.95-136.76,58.71-135.34,134-1.11,59.9,37,109.9,91,127.3a138.06,138.06,0,0,0,44.29,6.63,145.81,145.81,0,0,0,44.11-6.63c54.64-17.25,91.27-66.37,91.27-127.3C708.73,409.56,651.45,351.81,573.35,351.81Zm53,188.84c-13.76,14.67-31.27,21.8-53,21.8s-39.27-7.13-53-21.8S500,508,500,485.77c0-43.56,29.81-77.17,73.34-77.17,44,0,73.84,33.61,73.84,77.17C647.19,508,640.1,526,626.39,540.65Z"/><polygon class="cls-1" points="979.39 444.84 979.39 616.9 915.05 616.9 915.05 479.85 853.74 434.46 792.44 479.88 792.44 616.9 728.1 616.9 728.1 358.88 792.44 358.88 792.44 397.22 853.74 351.8 979.39 444.84"/><path class="cls-1" d="M1263.39,483.44c0-75.26-55.83-127.8-131.58-127.8-75.22,0-131.55,57.75-131.55,134S1058,623.53,1139.85,623.53c49.24,0,93.73-22.23,116-55.83l-49.7-31.27c-12.79,19.43-38.35,31.73-66.29,31.73-39.27,0-68.63-19.89-76.67-56.33h199.29C1262.93,501,1263.39,491.48,1263.39,483.44Zm-200.21-17.06c7.58-35.94,35-56.78,69.12-56.78,39.28,0,65.8,22.72,69.09,56.78Z"/><path class="cls-1" d="M501.74,42.67a154.52,154.52,0,0,0-53.08,68.06c-1,2.4-1.88,4.81-2.68,7.21-.56.08-1.16.2-1.72.32-1.21.28-2.41.6-3.57,1l-.88.24c-1,.32-2,.68-3.05,1s-2.24.88-3.36,1.41a17.23,17.23,0,0,0-2,1c-.68.32-1.37.64-2.05,1l-2,1.12a1.38,1.38,0,0,0-.48.28c-13.82,8.29-24.48,21.83-30.85,37.82a94.23,94.23,0,0,0-6.69,35V305.14H322.07V38.94h67.26V83.49a86.42,86.42,0,0,1,22.24-30q1.74-1.5,3.6-2.88a9.39,9.39,0,0,0,1-.76A80.75,80.75,0,0,1,444.26,36.5v.12A84.18,84.18,0,0,1,465,34,81.61,81.61,0,0,1,501.74,42.67Z"/><path class="cls-1" d="M85.1,738Q72.37,738,64,729.53a30.09,30.09,0,0,1,0-41.67q8.38-8.43,21.12-8.43a28.48,28.48,0,0,1,14.15,3.63,26.42,26.42,0,0,1,10.12,9.83l-8.06,4.68a16.74,16.74,0,0,0-6.57-6.65,19.13,19.13,0,0,0-9.64-2.46q-9,0-14.63,5.72a21.61,21.61,0,0,0,0,29q5.61,5.71,14.63,5.72a19.33,19.33,0,0,0,9.68-2.46,16.07,16.07,0,0,0,6.53-6.65l8.06,4.59a26.12,26.12,0,0,1-10,9.88A28.36,28.36,0,0,1,85.1,738Z"/><path class="cls-1" d="M177.53,729.45a29.58,29.58,0,0,1-41.52,0,29.27,29.27,0,0,1,20.76-50,29.36,29.36,0,0,1,20.76,50Zm-35-6.28a20.46,20.46,0,0,0,28.46,0,21.07,21.07,0,0,0,0-28.95,20.46,20.46,0,0,0-28.46,0,21.07,21.07,0,0,0,0,28.95Z"/><path class="cls-1" d="M241.25,680.48h9.27v56.43h-7.25l-26.61-38.29v38.29h-9.27V680.48h7.08L241.25,719Z"/><path class="cls-1" d="M293.49,738a24.79,24.79,0,0,1-13.83-3.71,19.51,19.51,0,0,1-7.94-10.16l8-4.67q3.39,9.51,14,9.51,5.24,0,7.86-2a6.47,6.47,0,0,0,2.62-5.35,5.85,5.85,0,0,0-2.83-5.26q-2.82-1.82-10-4l-6.48-2.41a25,25,0,0,1-5.32-2.84,12,12,0,0,1-4.15-4.71,15,15,0,0,1-1.37-6.61,14.6,14.6,0,0,1,5.32-11.89,19.49,19.49,0,0,1,12.82-4.4,21.2,21.2,0,0,1,11.85,3.31,21.64,21.64,0,0,1,7.82,9.11l-7.82,4.51q-3.56-7.9-11.85-7.9a10.18,10.18,0,0,0-6.45,1.89,6.2,6.2,0,0,0-2.42,5.13,5.64,5.64,0,0,0,2.47,4.85c1.65,1.18,4.64,2.44,9,3.75l4.64,1.75,4.21,1.58a14.21,14.21,0,0,1,4.11,2.19,30.54,30.54,0,0,1,2.92,2.85,9.91,9.91,0,0,1,2.2,3.92,17.74,17.74,0,0,1,.64,5A14.78,14.78,0,0,1,308,733.48Q302.44,738,293.49,738Z"/><path class="cls-1" d="M372.25,732.6q-6,5.35-15.4,5.36t-15.4-5.36q-6-5.37-6-14.39V680.48h9.27v37.16a11.2,11.2,0,0,0,3,8.23q3,3.06,9.07,3.06t9.07-3.06a11.24,11.24,0,0,0,3-8.23V680.48h9.27v37.73Q378.21,727.24,372.25,732.6Z"/><path class="cls-1" d="M412.63,728h23v8.87H403.36V680.48h9.27Z"/><path class="cls-1" d="M484,680.48v8.87H468.09v47.56h-9.27V689.35h-16v-8.87Z"/><path class="cls-1" d="M505.34,680.48h9.27v56.43h-9.27Z"/><path class="cls-1" d="M572.65,680.48h9.27v56.43h-7.26l-26.6-38.29v38.29h-9.27V680.48h7.07L572.65,719Z"/><path class="cls-1" d="M664.23,707.73v3.87q0,11.61-7.66,19t-20,7.38q-13.05,0-21.56-8.47a29.64,29.64,0,0,1,0-41.55,28.64,28.64,0,0,1,21.08-8.51,29.18,29.18,0,0,1,14.43,3.63,26.55,26.55,0,0,1,10.16,9.75l-8,4.6a16.81,16.81,0,0,0-6.69-6.49,20.1,20.1,0,0,0-9.92-2.46,20.5,20.5,0,0,0-14.55,34.75q5.76,5.71,15.11,5.72,7.5,0,12.22-3.51a15.45,15.45,0,0,0,6-9.39H636v-8.3Z"/><path class="cls-1" d="M732.75,728h25v8.87H723.48V680.48h33.85v8.87H732.75V704h22.57v8.79H732.75Z"/><path class="cls-1" d="M816.18,680.48h9.27v56.43H818.2l-26.61-38.29v38.29h-9.27V680.48h7.08L816.18,719Z"/><path class="cls-1" d="M906.15,707.73v3.87q0,11.61-7.66,19t-20,7.38q-13.05,0-21.56-8.47a29.64,29.64,0,0,1,0-41.55A28.64,28.64,0,0,1,878,679.43a29.18,29.18,0,0,1,14.43,3.63,26.55,26.55,0,0,1,10.16,9.75l-8,4.6a16.81,16.81,0,0,0-6.69-6.49,20.1,20.1,0,0,0-9.92-2.46,20.5,20.5,0,0,0-14.55,34.75q5.76,5.71,15.11,5.72,7.5,0,12.22-3.51a15.45,15.45,0,0,0,6-9.39H877.93v-8.3Z"/><path class="cls-1" d="M930.73,680.48H940v56.43h-9.27Z"/><path class="cls-1" d="M999.66,680.48h9.27v56.43h-7.26l-26.6-38.29v38.29H965.8V680.48h7.07L999.66,719Z"/><path class="cls-1" d="M1044,728h25v8.87h-34.26V680.48h33.86v8.87H1044V704h22.57v8.79H1044Z"/><path class="cls-1" d="M1102.84,728h25v8.87h-34.26V680.48h33.86v8.87h-24.59V704h22.57v8.79h-22.57Z"/><path class="cls-1" d="M1184.58,736.91l-11.92-20.56h-11v20.56h-9.27V680.48H1175a18,18,0,0,1,18.13,18.14,16.92,16.92,0,0,1-3.1,9.87,17.69,17.69,0,0,1-8.1,6.49l12.82,21.93Zm-22.89-47.72v18.86H1175a8.32,8.32,0,0,0,6.29-2.74,10,10,0,0,0,0-13.38,8.32,8.32,0,0,0-6.29-2.74Z"/><path class="cls-1" d="M1235.13,738a24.79,24.79,0,0,1-13.83-3.71,19.46,19.46,0,0,1-7.94-10.16l8-4.67q3.39,9.51,14,9.51,5.24,0,7.86-2a6.5,6.5,0,0,0,2.62-5.35,5.87,5.87,0,0,0-2.83-5.26q-2.82-1.82-10-4l-6.47-2.41a24.56,24.56,0,0,1-5.32-2.84,11.91,11.91,0,0,1-4.15-4.71,14.9,14.9,0,0,1-1.37-6.61,14.6,14.6,0,0,1,5.32-11.89,19.46,19.46,0,0,1,12.81-4.4,21.22,21.22,0,0,1,11.86,3.31,21.55,21.55,0,0,1,7.81,9.11l-7.81,4.51q-3.56-7.9-11.86-7.9a10.17,10.17,0,0,0-6.44,1.89,6.17,6.17,0,0,0-2.42,5.13,5.64,5.64,0,0,0,2.47,4.85c1.65,1.18,4.63,2.44,9,3.75l4.63,1.75,4.22,1.58a14.49,14.49,0,0,1,4.11,2.19,30.54,30.54,0,0,1,2.92,2.85,9.91,9.91,0,0,1,2.2,3.92,18.12,18.12,0,0,1,.64,5,14.78,14.78,0,0,1-5.53,12.13Q1244.07,738,1235.13,738Z"/><polygon class="cls-1" points="979.39 444.84 979.39 527.49 853.74 434.46 728.1 527.54 728.1 358.88 792.44 358.88 792.44 397.22 853.74 351.8 979.39 444.84"/></svg>